<svg
  viewBox="0 0 1024 1024"
  version="1.1"
  xmlns="http://www.w3.org/2000/svg"
  width="200"
  height="200"
>
  <path
    d="M521.435429 627.748571c8.96 14.372571 14.701714 40.886857 28.708571 52.077715 7.606857 6.034286 14.482286 17.188571 21.833143 23.515428 11.666286 10.24 25.088 19.419429 35.84 29.696 10.752 10.203429 19.931429 18.139429 26.331428 31.049143 11.190857 16.822857 17.517714 39.131429 19.2 57.819429 0.438857 4.864 2.267429 7.570286 1.243429 12.580571-0.768 3.803429 24.283429 2.084571 28.306286 2.084572H900.315429c-5.12-6.473143-8.740571-15.213714-12.617143-21.796572a203.044571 203.044571 0 0 1-14.628572-30.683428c-2.669714-7.460571-6.875429-15.36-9.545143-23.186286-3.437714-9.947429-2.889143-18.980571-8.704-28.598857-4.059429-6.729143-3.401143-18.944-6.509714-25.746286-6.180571-13.568-2.669714-35.657143-2.998857-50.834286-0.694857-32.768-1.243429-65.28-5.302857-97.901714-4.132571-33.901714-17.883429-69.339429-16.457143-102.217143 1.060571-24.283429 6.509714-51.712 1.170286-75.410286-4.315429-15.140571-15.506286-27.026286-26.806857-36.132571-4.352-3.547429-9.033143-5.814857-13.677715-8.594286-1.792-2.889143-13.056-11.483429-16.822857-12.982857-16.018286-6.436571-47.469714-35.437714-47.652571-34.925714-20.041143-14.555429-31.817143-36.790857-51.273143-51.785143-7.021714-5.412571-13.202286-16.713143-18.395429-23.076571-17.773714-21.577143-40.850286-35.620571-71.277714-36.022858-13.092571-0.146286-27.830857-0.219429-40.265143-1.170285-24.466286-3.108571-52.48-11.337143-77.056-9.984-12.617143-0.109714-20.589714 3.035429-32.109714 9.033143-12.214857 9.069714-30.390857 12.141714-43.849143 17.225142-18.907429 7.241143-19.017143 32.146286-3.218286 44.8 13.385143 10.715429 35.693714 10.130286 52.589715 12.873143 11.008 1.792 20.150857 2.889143 29.184 10.166857 4.681143 3.803429 9.216 11.410286 15.030857 14.555429 22.125714 11.958857 32.219429 35.803429 49.042285 54.418286 9.472 10.386286 20.443429 19.712 30.573715 29.476571 16.018286 15.36 23.405714 41.142857 27.611428 61.915429 7.021714 34.633143 2.816 74.861714-36.717714 88.027428a58.733714 58.733714 0 0 1-60.525714-15.469714c-17.737143-11.666286-37.229714-21.028571-54.418286-33.28-24.173714-18.066286-62.061714-40.704-89.161143-13.568-9.142857 9.106286-15.981714 29.074286-1.499428 36.827429 11.995429 6.436571 20.589714 12.946286 30.902857 21.138285 23.003429 18.212571 39.497143 44.434286 64.146285 59.794286 13.056 8.155429 24.612571 18.541714 37.924572 26.697143s25.380571 18.578286 36.864 29.147428"
    fill="#EED6AA"
    p-id="55341"
    data-spm-anchor-id="a313x.search_index.0.i61.74783a815Eghvt"
    class=""
  ></path>
</svg>
