<svg
  viewBox="0 0 1756 1024"
  version="1.1"
  xmlns="http://www.w3.org/2000/svg"
  data-spm-anchor-id="a313x.search_index.0.i24.74783a815Eghvt"
  width="200"
  height="200"
>
  <path
    d="M401.188661 1024h-2.48327c-41.694901-1.682215-57.275417-50.987137-57.97634-92.702064-0.560738-33.163668 14.679329-65.346044 42.91651-90.599296 35.446674-31.741796 79.724977-43.557354 122.521329-54.992411 25.052988-6.688807 50.947084-13.597905 74.197699-24.43217 65.926808-30.680398 122.84175-80.506005 160.210955-140.324771 33.644301-53.750776 7.770231-122.761645-37.329152-168.862348 17.162599 26.935467 29.278552 54.671989 34.725724 79.945267 7.469836 34.645619 1.60211 61.240638-16.521754 74.858569s-45.299648 11.855611-76.480706-4.966539c-28.717814-15.660621-58.356841-42.47593-83.369776-75.73973-27.876706-37.128889-46.441151-77.842498-51.267506-111.727115a388.010909 388.010909 0 0 0-64.084382 30.039554l0.340448 0.240317c10.794213 8.310943 23.150483 25.914122 35.0862 42.916509 6.828992 9.712789 13.277483 18.904893 18.504365 24.972883 27.235863 31.701743 47.282258 66.46752 56.454336 97.928947 10.013185 34.044828 6.007911 60.980295-11.054556 75.659624s-44.23825 14.539144-76.460679-0.420554c-29.739159-13.778142-61.100453-38.83113-88.336316-70.512847-22.309376-26.03428-39.852475-54.171329-50.486477-80.966612-11.334925 11.03453-22.830061 22.850088-34.36525 35.326516a119.03674 119.03674 0 0 1 28.918077 40.573425c9.412394 21.468268 12.636639 44.298329 9.031893 64.244593-3.865089 21.408189-14.999751 37.168942-31.381321 44.338382s-35.526779 4.726223-53.870934-6.929124c-14.599223-9.272209-27.356021-23.571037-36.648256-40.893846-16.021096 21.187899-32.82322 44.298329-51.968429 71.514165-20.426897 29.038236-65.065674 36.788441-98.609843 29.45879-32.622956-7.129388-55.012437-27.235863-59.918898-53.750776-9.111998-49.42508 25.533621-89.017212 56.073835-123.923174a420.093153 420.093153 0 0 0 27.235862-33.243774c43.076721-61.460928 85.55265-113.489436 129.670743-158.829136a1521.964028 1521.964028 0 0 0-33.724407 31.761822l-4.285643 4.105406c-17.32281 17.022414-33.764459 33.04351-63.964224 32.863272s-53.049853-18.183943-56.634573-44.67883c-2.963903-21.828743 5.066671-48.243524 21.468268-70.633006 40.052739-54.631936 110.145032-101.353456 208.274243-138.882872 85.512598-32.683035 177.45366-52.409009 240.316434-63.283328 14.278801-9.592631 29.598974-19.866159 45.299648-30.319923l19.505684-12.977087c65.005595-43.116774 103.516304-67.669102 114.470728-72.956064a341.689916 341.689916 0 0 1 62.482272-22.870114c68.910737-18.023733 137.68129-15.119909 210.477144-12.015822 12.896982 0.540712 26.214518 1.10145 39.371842 1.522004L1317.355012 13.509448c26.554966 0.861134 53.45038 0.620817 81.947904 0.360475 61.320743-0.540712 124.744256-1.121477 183.30136 10.113317 51.267506 9.812921 97.388235 42.596088 129.85098 92.261484 38.430603 58.757368 53.310196 134.777467 38.851156 198.381216-20.266686 89.157397-89.017212 200.263695-176.51242 230.523539-46.821652 16.201333-99.531056 16.141254-150.53822 16.021096-18.884866 0-36.688309 0-54.071197 0.740975-5.286962 0.240316-10.613976 0.44058-16.021096 0.640844-49.20479 1.842426-95.685993 3.58472-133.455726 33.383958a788.498246 788.498246 0 0 0-106.139758 101.33343 502.46161 502.46161 0 0 0-31.661691 42.19556c-21.808716 31.22111-44.358408 63.523644-78.803764 82.90917-36.047465 20.306739-77.582155 25.133094-117.735026 29.799238-8.150732 0.961266-15.840858 1.842426-23.470905 2.863771-58.236682 7.810284-114.650965 16.862203-164.817021 41.614795-96.467022 47.562628-179.696613 85.592703-254.495103 116.273102-12.556534 5.226882-26.795282 11.074582-42.395824 11.074582z m196.258421-658.447002l53.610591 24.452197c17.402915 8.010548 34.725725 19.425578 52.909668 35.206357 58.937605 51.007163 96.306811 138.282081 53.690697 206.271606-39.471974 63.063038-99.410898 115.572178-168.802269 147.874712-24.852725 11.575242-51.607954 18.724655-77.482023 25.613727-42.395824 11.334925-82.448563 22.029006-114.330544 50.566583-23.83138 21.328084-36.708335 48.063287-36.247729 75.359228 0.400527 24.732566 9.031893 71.814561 38.751025 73.016143 12.156006 0.520686 24.532303-4.586039 36.508072-9.492499 74.35791-30.480134 157.186974-68.329973 253.233442-115.692336 52.869615-26.03428 111.066245-35.446674 171.025196-43.497275 7.790258-1.041371 16.021096-2.002637 23.791327-2.903823 38.190287-4.445854 77.702314-9.031893 110.145032-27.356021 30.460108-17.162599 51.68806-47.542601 72.235114-76.941312a521.16624 521.16624 0 0 1 32.963405-43.857749 807.903798 807.903798 0 0 1 108.94345-103.916831c42.896483-33.844564 94.864912-35.807149 145.111073-37.689627q8.010548-0.260343 15.820832-0.620818c17.823469-0.801055 36.688309-0.781028 54.952358-0.761002 49.304922 0 100.352138 0 143.96957-14.999751 80.666216-27.916759 144.470229-132.174039 163.535333-216.024447 13.297509-58.497025-0.540712-128.629371-36.047465-183.000965-29.518869-45.059331-70.933401-74.738411-116.99405-83.610092-56.574494-10.854292-118.976661-10.293554-179.336139-9.752842-27.436126 0.240316-55.813492 0.500659-82.768985-0.360475l-299.794752-9.672736c-13.257457-0.44058-26.635071-1.001318-39.572106-1.542031-71.273849-3.003955-138.582477-5.8477-204.569364 11.415031a319.781068 319.781068 0 0 0-58.917579 21.5684c-5.707515 2.763639-27.876706 15.7207-112.147669 71.614297-6.488544 4.285643-12.997114 8.611339-19.465631 12.937035-16.321491 10.874319-32.242455 21.548374-47.001889 31.461426l-1.782347 1.201582-2.122795 0.360475c-126.166128 21.668532-350.741835 75.759756-437.896596 194.656311-10.373659 14.11859-20.486976 36.287782-17.803442 56.073835 2.543349 18.724655 20.386844 27.235863 36.948652 27.356021h0.480632c21.688558 0 33.283826-11.395004 49.324948-27.135731l4.425828-4.305669a1523.16561 1523.16561 0 0 1 39.572106-37.088837c13.918327-12.596586 76.901259-55.833518 133.155331-93.102591l11.835584 16.021095a1412.68013 1412.68013 0 0 0-118.15558 106.139758c-44.939173 45.600043-88.116026 98.229342-132.033854 160.8518a423.938216 423.938216 0 0 1-28.357339 35.126252c-28.998183 32.963404-58.917579 67.208496-51.547875 107.060971 4.866408 26.434808 32.723088 35.266437 44.478567 37.829812 31.080925 6.808966 64.585042-2.403164 77.962656-21.408189 23.470905-33.363932 43.417169-60.599794 62.802695-85.732887l10.994477-14.258775 6.308306 16.882229c0.340448 0.901187 0.66087 1.8224 0.961266 2.743613s0.720949 2.162848 1.10145 3.023981c7.850337 17.883548 19.766027 32.562877 33.564195 41.334427 12.536507 8.010548 25.012935 10.013185 35.0862 5.487225s17.082493-14.899619 19.725974-29.538895c2.903824-16.021096 0.180237-34.785804-7.6701-52.669351a94.76478 94.76478 0 0 0-30.940741-39.291737l-9.252182-6.528597 7.589994-8.371022c18.023733-20.026369 36.207676-38.490682 53.870934-54.992411l11.735452-10.97445 4.666144 15.380251c8.651392 28.457471 27.035599 59.978977 51.788192 88.75687 25.413463 29.558921 54.39162 52.78951 81.587429 65.406123 24.312013 11.274846 44.358408 12.516481 54.972384 3.404483s12.396323-29.118341 4.886434-54.872253c-8.391049-28.777893-26.995546-60.90019-52.409009-90.479137-5.867726-6.828992-12.596586-16.38157-19.705947-26.514913-10.573923-15.05983-22.549692-32.042191-30.920715-38.570788a111.146351 111.146351 0 0 0-12.015821-7.850337l-14.278802-8.350996 14.018459-8.791576a410.540574 410.540574 0 0 1 93.943699-44.158145l12.556534-4.005274 0.460606 13.137299c1.10145 32.202402 19.225315 74.638279 48.463814 113.549515 23.310694 31.020846 50.626662 55.913624 76.941312 70.092293 23.571037 12.716745 43.617433 15.119909 54.952358 6.588675s14.61925-28.437445 8.971813-54.611909c-6.28828-29.218473-22.609771-62.402167-45.920465-93.423014a297.191323 297.191323 0 0 0-32.582903-36.468019z"
    fill="#EED6AA"
    p-id="29789"
  ></path>
</svg>
