<svg viewBox="0 0 1024 1024" version="1.1" xmlns="http://www.w3.org/2000/svg">
  <path
    d="M853.333333 251.306667l-77.226666 288.426666a173.653333 173.653333 0 0 0-5.973334 42.666667V938.666667a42.666667 42.666667 0 0 1-42.666666 42.666666H469.333333a42.666667 42.666667 0 0 1-42.666666-42.666666v-4.693334a64.426667 64.426667 0 0 0-33.28-56.32L256 803.413333a170.666667 170.666667 0 0 1-83.2-107.093333l-42.666667-170.666667a42.666667 42.666667 0 0 1 26.026667-51.2 85.333333 85.333333 0 0 1 108.373333 59.306667l12.8 47.36a42.666667 42.666667 0 0 0 30.72 30.293333l50.773334 12.8a85.333333 85.333333 0 0 0 98.133333-46.506666l10.24-21.76a85.333333 85.333333 0 0 0-34.56-110.08l-13.653333-7.68A85.333333 85.333333 0 0 0 353.706667 426.666667l-145.066667 42.666666a64 64 0 1 1-33.28-123.733333l179.2-48.213333a128 128 0 0 1 97.28 12.8l28.16 16.64a21.333333 21.333333 0 1 0 21.333333-36.693334l-70.4-42.666666L387.84 128a64 64 0 0 1 48.64-85.333333 66.986667 66.986667 0 0 1 72.96 42.666666l102.4 282.026667a21.333333 21.333333 0 0 0 40.106667-14.506667L597.333333 205.653333V106.666667a64 64 0 0 1 128 0v213.333333a21.333333 21.333333 0 0 0 42.666667 0V174.506667a63.573333 63.573333 0 0 1 37.973333 0A64.426667 64.426667 0 0 1 853.333333 251.306667z"
    p-id="93012"
    fill="#EED6AA"
  ></path>
</svg>
