<svg viewBox="0 0 1024 3000" version="1.1" xmlns="http://www.w3.org/2000/svg">
  <path d="M389 1008 L727 1008 L727 2950 L389 2950 Z" fill="#EED6AA" />
  <path
    d="M389 1008 L389 2950"
    stroke="#D5935D"
    stroke-width="16"
    fill="none"
  />
  <path
    d="M727 1008 L727 2950"
    stroke="#D5935D"
    stroke-width="16"
    fill="none"
  />

  <path
    d="M722.332903 1007.995871a220.688516 220.688516 0 0 1 26.574452-54.404129c23.403355-34.931613 62.728258-87.436387 83.852387-137.992258 34.849032-83.406452 44.577032-272.08671 29.134452-566.040774a47.070968 47.070968 0 0 0-47.004904-44.593549 44.510968 44.510968 0 0 0-44.510967 44.510968v226.237936l-18.332904-324.52542a59.028645 59.028645 0 0 0-58.929548-55.692387A55.774968 55.774968 0 0 0 637.357419 151.287742v270.170839L611.922581 83.125677A71.993806 71.993806 0 0 0 540.143484 16.516129a69.433806 69.433806 0 0 0-69.384258 66.725161l-13.146839 338.217291V157.877677a62.381419 62.381419 0 0 0-62.397935-62.381419 62.034581 62.034581 0 0 0-62.034581 62.381419l1.948903 355.75742-44.477935-100.897032a82.580645 82.580645 0 0 0-75.561291-49.267613h-6.887225A44.923871 44.923871 0 0 0 165.16129 421.326452c14.286452 47.467355 22.709677 78.236903 25.269678 92.325161 19.15871 105.372903 21.256258 190.810839 43.553032 254.018064 16.516129 46.839742 74.487742 110.823226 98.832516 151.882323 15.326968 25.831226 32.503742 55.312516 51.530323 88.443871h337.969548z"
    fill="#EED6AA"
  ></path>
  <path
    d="M536.592516 8.340645a77.691871 77.691871 0 0 0-74.091355 74.586839l-1.866322 48.276645-0.974452-2.312258a70.656 70.656 0 0 0-64.445935-41.653677 70.309161 70.309161 0 0 0-70.210065 66.890322l-0.082581 3.782194 1.75071 316.052645-28.45729-64.545032a90.83871 90.83871 0 0 0-83.125678-54.205936h-6.887225a53.181935 53.181935 0 0 0-50.919226 68.492387l8.092903 27.317678 5.400774 18.72929 5.384258 19.489032 3.187613 12.469678 1.767226 7.498322 0.858839 4.129032 0.330322 1.783742c2.840774 15.57471 5.400774 31.248516 7.911226 48.061936l4.129032 29.233548 8.026839 61.44 2.758194 19.951484 1.783742 12.139355 1.783741 11.280516 1.800259 10.520774 1.816774 9.827097 1.866322 9.249032 1.932387 8.704c0.990968 4.228129 2.014968 8.307613 3.088517 12.254968l2.180129 7.762581 1.156129 3.798709 2.411354 7.415742 1.255226 3.666581c6.193548 17.556645 17.672258 37.491613 35.278452 62.893419l6.523871 9.265549 5.648516 7.861677 31.925677 43.371355 3.220646 4.492387 5.797161 8.258065 4.987871 7.399225c2.312258 3.501419 4.343742 6.738581 6.144 9.794065l15.921548 27.020387 17.176774 29.448258 20.760775 36.021677h348.721548l1.866323-5.681548c5.301677-16.185806 12.486194-31.578839 21.570064-46.179097l5.252129-8.010322 26.095484-38.168774 12.403613-18.481549c15.756387-24.064 28.126968-45.155097 37.854968-65.337806 2.543484-5.318194 4.888774-10.520774 7.019354-15.607742 4.789677-11.495226 9.133419-24.87329 12.998194-40.183742l2.246194-9.414194c0.743226-3.204129 1.453419-6.490839 2.147096-9.860129l2.048-10.32258 0.974452-5.33471 1.866322-11.016258 0.875355-5.681549 1.701162-11.726451c0.545032-3.963871 1.073548-8.026839 1.585548-12.155871l1.486452-12.618323 1.354322-13.080774 1.23871-13.543226 1.156129-14.022193 1.007484-14.451613 0.908387-14.930581 0.80929-15.393032 0.693678-15.855484 0.29729-8.092903 0.528516-16.532645 0.396387-17.011613 0.313807-17.457549 0.099096-8.902193 0.165162-27.416774-0.049549-18.828387-0.148645-19.323871-0.429419-29.828129-0.660645-30.868646-0.611097-21.140645-0.693678-21.636129-1.271742-33.296516-1.502967-34.353548-1.767226-35.377549a55.329032 55.329032 0 0 0-55.246452-52.422193l-2.989419 0.08258a52.802065 52.802065 0 0 0-45.799226 32.536775l-1.189161 3.187613-4.624516-81.787871a67.28671 67.28671 0 0 0-67.171097-63.488l-3.303226 0.08258A64.049548 64.049548 0 0 0 629.099355 151.287742v49.796129l-8.91871-118.585806A80.251871 80.251871 0 0 0 540.143484 8.258065l-3.550968 0.08258z m3.550968 16.433549a63.735742 63.735742 0 0 1 63.554064 58.96258l25.401807 338.332903 16.499613-0.611096V151.287742a47.516903 47.516903 0 0 1 47.516903-47.533419 50.770581 50.770581 0 0 1 50.688 47.896774l18.332903 324.525419 16.499613-0.462451V249.476129c0-20.017548 16.218839-36.252903 36.252903-36.252903a38.812903 38.812903 0 0 1 38.763355 36.764903l1.734194 35.080258 1.024 22.808774 1.337806 33.362581 1.090065 32.322064 0.842322 31.281549 0.594581 30.257548 0.264258 19.588129 0.165161 19.142194v27.829677l-0.115613 17.969549-0.231225 17.507096-0.545033 25.434839-0.792774 24.36129-1.040516 23.337291-0.825806 14.980129-0.94142 14.517677-1.040516 14.03871-1.156129 13.60929-1.255226 13.113807-0.660645 6.391742-1.436903 12.436645c-0.743226 6.110968-1.519484 12.040258-2.345291 17.787871l-1.684645 11.280516-1.816774 10.801548a600.030968 600.030968 0 0 1-0.941419 5.235613l-1.96542 10.124387c-0.330323 1.651613-0.660645 3.270194-1.024 4.888774l-2.114064 9.414194-2.246194 8.951742a353.775484 353.775484 0 0 1-1.156129 4.31071l-2.394838 8.258064c-2.444387 8.026839-5.053935 15.36-7.828646 21.999484-2.014968 4.82271-4.244645 9.744516-6.672516 14.814968-8.324129 17.275871-18.762323 35.410581-31.777032 55.725419l-8.91871 13.625807-20.760774 30.554838-14.980129 21.867355-4.294193 6.672516c-8.390194 13.477161-15.293935 27.581935-20.678194 42.330839l-0.594581 1.75071H389.153032l-16.053677-27.813162-22.643613-38.812903-10.520774-17.787871a291.658323 291.658323 0 0 0-8.968258-14.088258l-5.582452-8.092903-7.498323-10.487742-27.813161-37.755871-11.230968-15.591226-3.716129-5.285161-6.854193-10.107871c-13.01471-19.571613-21.685677-35.394065-26.475355-49.003355l-2.378323-7.019355-2.229677-7.217548a304.706065 304.706065 0 0 1-1.073548-3.699613l-2.048-7.613936-1.948904-8.010322-1.866322-8.439742a491.586065 491.586065 0 0 1-0.908387-4.426323l-1.800258-9.282064-1.75071-9.909678-1.734194-10.652903-2.64258-17.507097-4.261161-31.52929-7.035871-53.693935-0.578065-4.211613a1707.668645 1707.668645 0 0 0-9.282064-60.085678l-2.048-11.363097-0.908388-4.294193-1.139612-5.004387-3.022452-12.056774-2.906839-10.867613-4.740129-16.912516-8.91871-30.587871-3.468387-11.594323a36.665806 36.665806 0 0 1 35.096775-47.236129h6.887225a74.322581 74.322581 0 0 1 68.01342 44.362323l60.49858 137.282064-2.163613-395.842064a53.776516 53.776516 0 0 1 53.776517-53.76 54.123355 54.123355 0 0 1 54.139871 54.123354V421.326452l16.516129 0.330322 13.146838-338.085161a61.175742 61.175742 0 0 1 61.126194-58.797419z"
    fill="#D5935D"
  ></path>
</svg>
